<svg width="1200" height="360" viewBox="0 0 1200 360" fill="none" xmlns="http://www.w3.org/2000/svg">
  <defs>
    <linearGradient id="bg" x1="0" y1="0" x2="1200" y2="360" gradientUnits="userSpaceOnUse">
      <stop stop-color="#07131D"/>
      <stop offset="0.55" stop-color="#0A1C2B"/>
      <stop offset="1" stop-color="#12312F"/>
    </linearGradient>
    <linearGradient id="line" x1="0" y1="0" x2="1" y2="0">
      <stop stop-color="#72F0E7"/>
      <stop offset="1" stop-color="#7EA2FF"/>
    </linearGradient>
  </defs>
  <rect width="1200" height="360" fill="url(#bg)"/>
  <g opacity="0.08">
    <path d="M0 72H1200M0 144H1200M0 216H1200M0 288H1200" stroke="#D8FFFF"/>
    <path d="M100 0V360M200 0V360M300 0V360M400 0V360M500 0V360M600 0V360M700 0V360M800 0V360M900 0V360M1000 0V360M1100 0V360" stroke="#D8FFFF"/>
  </g>
  <rect x="70" y="70" width="1060" height="220" rx="22" fill="#0B1D2B" stroke="#1E4A5B"/>
  <text x="110" y="138" fill="#E8FDFF" font-family="Arial, 'Microsoft YaHei', sans-serif" font-size="44" font-weight="800">Building small systems for real life</text>
  <text x="112" y="184" fill="#AED5DE" font-family="Arial, 'Microsoft YaHei', sans-serif" font-size="24">Local-first tools · personal knowledge systems · thoughtful product prototypes</text>
  <rect x="112" y="224" width="330" height="6" rx="3" fill="url(#line)"/>
  <text x="112" y="262" fill="#7FE9E3" font-family="Arial, 'Microsoft YaHei', sans-serif" font-size="20" font-weight="700">Journal systems</text>
  <text x="318" y="262" fill="#9DB9C4" font-family="Arial, 'Microsoft YaHei', sans-serif" font-size="20">/</text>
  <text x="346" y="262" fill="#7EA2FF" font-family="Arial, 'Microsoft YaHei', sans-serif" font-size="20" font-weight="700">Travel ledger</text>
  <text x="520" y="262" fill="#9DB9C4" font-family="Arial, 'Microsoft YaHei', sans-serif" font-size="20">/</text>
  <text x="548" y="262" fill="#FFD27A" font-family="Arial, 'Microsoft YaHei', sans-serif" font-size="20" font-weight="700">AI-assisted workflows</text>
</svg>
